999
dxfrw 0.6.3
  0
SECTION
  2
HEADER
  9
$ACADVER
  1
AC1021
  9
$DWGCODEPAGE
  3
ANSI_1252
  9
$INSBASE
 10
0
 20
0
 30
0
  9
$EXTMIN
 10
356.9425084529665
 20
74.86815873044907
 30
0
  9
$EXTMAX
 10
2705.187007532551
 20
1215.463109804548
 30
0
  9
$LIMMIN
 10
0
 20
0
  9
$LIMMAX
 10
420
 20
297
  9
$ORTHOMODE
 70
    0
  9
$REGENMODE
 70
    1
  9
$FILLMODE
 70
    1
  9
$QTEXTMODE
 70
    0
  9
$MIRRTEXT
 70
    0
  9
$LTSCALE
 40
1
  9
$ATTMODE
 70
    0
  9
$TEXTSIZE
 40
2.5
  9
$TRACEWID
 40
15.68
  9
$TEXTSTYLE
  7
STANDARD
  9
$CLAYER
  8
0
  9
$CELTYPE
  6
BYLAYER
  9
$CECOLOR
 62
  256
  9
$CELTSCALE
 40
1
  9
$DISPSILH
 70
    0
  9
$DIMSCALE
 40
1
  9
$DIMASZ
 40
2.5
  9
$DIMEXO
 40
0.625
  9
$DIMDLI
 40
3.75
  9
$DIMRND
 40
0
  9
$DIMDLE
 40
0
  9
$DIMEXE
 40
1.25
  9
$DIMTP
 40
0
  9
$DIMTM
 40
0
  9
$DIMTXT
 40
2.5
  9
$DIMCEN
 40
2.5
  9
$DIMTSZ
 40
0
  9
$DIMTOL
 70
    0
  9
$DIMLIM
 70
    0
  9
$DIMTIH
 70
    0
  9
$DIMTOH
 70
    0
  9
$DIMSE1
 70
    0
  9
$DIMSE2
 70
    0
  9
$DIMTAD
 70
    1
  9
$DIMZIN
 70
    1
  9
$DIMBLK
  1

  9
$DIMASO
 70
    1
  9
$DIMSHO
 70
    1
  9
$DIMPOST
  1

  9
$DIMAPOST
  1

  9
$DIMALT
 70
    0
  9
$DIMALTD
 70
    3
  9
$DIMALTF
 40
0.03937
  9
$DIMLFAC
 40
1
  9
$DIMTOFL
 70
    1
  9
$DIMTVP
 40
0
  9
$DIMTIX
 70
    0
  9
$DIMSOXD
 70
    0
  9
$DIMSAH
 70
    0
  9
$DIMBLK1
  1

  9
$DIMBLK2
  1

  9
$DIMSTYLE
  2
STANDARD
  9
$DIMCLRD
 70
    0
  9
$DIMCLRE
 70
    0
  9
$DIMCLRT
 70
    0
  9
$DIMTFAC
 40
1
  9
$DIMGAP
 40
0.625
  9
$DIMJUST
 70
    0
  9
$DIMSD1
 70
    0
  9
$DIMSD2
 70
    0
  9
$DIMTOLJ
 70
    0
  9
$DIMTZIN
 70
    8
  9
$DIMALTZ
 70
    0
  9
$DIMALTTZ
 70
    0
  9
$DIMUPT
 70
    0
  9
$DIMDEC
 70
    4
  9
$DIMTDEC
 70
    2
  9
$DIMALTU
 70
    2
  9
$DIMALTTD
 70
    3
  9
$DIMTXSTY
  7
standard
  9
$DIMAUNIT
 70
    0
  9
$DIMADEC
 70
    2
  9
$DIMALTRND
 40
0
  9
$DIMAZIN
 70
    0
  9
$DIMDSEP
 70
    0
  9
$DIMATFIT
 70
    3
  9
$DIMFRAC
 70
    0
  9
$DIMLDRBLK
  1
STANDARD
  9
$DIMLUNIT
 70
    2
  9
$DIMLWD
 70
   -2
  9
$DIMLWE
 70
   -2
  9
$DIMTMOVE
 70
    0
  9
$DIMFXL
 40
1
  9
$DIMFXLON
 70
    0
  9
$DIMJOGANG
 40
0.7854
  9
$DIMTFILL
 70
    0
  9
$DIMTFILLCLR
 70
    0
  9
$DIMARCSYM
 70
    0
  9
$DIMLTYPE
  6

  9
$DIMLTEX1
  6

  9
$DIMLTEX2
  6

  9
$LUNITS
 70
    2
  9
$LUPREC
 70
    4
  9
$SKETCHINC
 40
1
  9
$FILLETRAD
 40
0
  9
$AUNITS
 70
    0
  9
$AUPREC
 70
    2
  9
$MENU
  1
.
  9
$ELEVATION
 40
0
  9
$PELEVATION
 40
0
  9
$THICKNESS
 40
0
  9
$LIMCHECK
 70
    0
  9
$CHAMFERA
 40
0
  9
$CHAMFERB
 40
0
  9
$CHAMFERC
 40
0
  9
$CHAMFERD
 40
0
  9
$SKPOLY
 70
    0
  9
$USRTIMER
 70
    1
  9
$ANGBASE
 50
0
  9
$ANGDIR
 70
    0
  9
$PDMODE
 70
   34
  9
$PDSIZE
 40
0
  9
$PLINEWID
 40
0
  9
$SPLFRAME
 70
    0
  9
$SPLINETYPE
 70
    2
  9
$SPLINESEGS
 70
    8
  9
$HANDSEED
  5
20000
  9
$SURFTAB1
 70
    6
  9
$SURFTAB2
 70
    6
  9
$SURFTYPE
 70
    6
  9
$SURFU
 70
    6
  9
$SURFV
 70
    6
  9
$UCSBASE
  2

  9
$UCSNAME
  2

  9
$UCSORG
 10
0
 20
0
 30
0
  9
$UCSXDIR
 10
1
 20
0
 30
0
  9
$UCSYDIR
 10
0
 20
1
 30
0
  9
$UCSORTHOREF
  2

  9
$UCSORTHOVIEW
 70
    0
  9
$UCSORGTOP
 10
0
 20
0
 30
0
  9
$UCSORGBOTTOM
 10
0
 20
0
 30
0
  9
$UCSORGLEFT
 10
0
 20
0
 30
0
  9
$UCSORGRIGHT
 10
0
 20
0
 30
0
  9
$UCSORGFRONT
 10
0
 20
0
 30
0
  9
$UCSORGBACK
 10
0
 20
0
 30
0
  9
$PUCSBASE
  2

  9
$PUCSNAME
  2

  9
$PUCSORG
 10
0
 20
0
 30
0
  9
$PUCSXDIR
 10
1
 20
0
 30
0
  9
$PUCSYDIR
 10
0
 20
1
 30
0
  9
$PUCSORTHOREF
  2

  9
$PUCSORTHOVIEW
 70
    0
  9
$PUCSORGTOP
 10
0
 20
0
 30
0
  9
$PUCSORGBOTTOM
 10
0
 20
0
 30
0
  9
$PUCSORGLEFT
 10
0
 20
0
 30
0
  9
$PUCSORGRIGHT
 10
0
 20
0
 30
0
  9
$PUCSORGFRONT
 10
0
 20
0
 30
0
  9
$PUCSORGBACK
 10
0
 20
0
 30
0
  9
$USERI1
 70
    0
  9
$USERI2
 70
    0
  9
$USERI3
 70
    0
  9
$USERI4
 70
    0
  9
$USERI5
 70
    0
  9
$USERR1
 40
0
  9
$USERR2
 40
0
  9
$USERR3
 40
0
  9
$USERR4
 40
0
  9
$USERR5
 40
0
  9
$WORLDVIEW
 70
    1
  9
$SHADEDGE
 70
    3
  9
$SHADEDIF
 70
   70
  9
$TILEMODE
 70
    1
  9
$MAXACTVP
 70
   64
  9
$PINSBASE
 10
0
 20
0
 30
0
  9
$PLIMCHECK
 70
    0
  9
$PEXTMIN
 10
0
 20
0
 30
0
  9
$PEXTMAX
 10
0
 20
0
 30
0
  9
$GRIDMODE
 70
    0
  9
$SNAPSTYLE
 70
    0
  9
$GRIDUNIT
 10
0
 20
0
  9
$PLIMMIN
 10
0
 20
0
  9
$PLIMMAX
 10
210
 20
297
  9
$UNITMODE
 70
    0
  9
$VISRETAIN
 70
    1
  9
$PLINEGEN
 70
    0
  9
$PSLTSCALE
 70
    1
  9
$TREEDEPTH
 70
 3020
  9
$CMLSTYLE
  2
Standard
  9
$CMLJUST
 70
    0
  9
$CMLSCALE
 40
20
  9
$PROXYGRAPHICS
 70
    1
  9
$MEASUREMENT
 70
    1
  9
$CELWEIGHT
370
   -1
  9
$ENDCAPS
280
    0
  9
$JOINSTYLE
280
    0
  9
$LWDISPLAY
290
    0
  9
$INSUNITS
 70
    4
  9
$HYPERLINKBASE
  1

  9
$STYLESHEET
  1

  9
$XEDIT
290
    1
  9
$CEPSNTYPE
380
    0
  9
$PSTYLEMODE
290
    1
  9
$EXTNAMES
290
    1
  9
$PSVPSCALE
 40
1
  9
$OLESTARTUP
290
    0
  9
$SORTENTS
280
  127
  9
$INDEXCTL
280
    0
  9
$HIDETEXT
280
    1
  9
$XCLIPFRAME
290
    0
  9
$HALOGAP
280
    0
  9
$OBSCOLOR
 70
  257
  9
$OBSLTYPE
280
    0
  9
$INTERSECTIONDISPLAY
280
    0
  9
$INTERSECTIONCOLOR
 70
  257
  9
$DIMASSOC
280
    1
  9
$PROJECTNAME
  1

  9
$CAMERADISPLAY
290
    0
  9
$LENSLENGTH
 40
50
  9
$CAMERAHEIGHT
 40
0
  9
$STEPSPERSEC
 40
2
  9
$STEPSIZE
 40
50
  9
$3DDWFPREC
 40
2
  9
$PSOLWIDTH
 40
5
  9
$PSOLHEIGHT
 40
80
  9
$LOFTANG1
 40
1.570796326794897
  9
$LOFTANG2
 40
1.570796326794897
  9
$LOFTMAG1
 40
0
  9
$LOFTMAG2
 40
0
  9
$LOFTPARAM
 70
    7
  9
$LOFTNORMALS
280
    1
  9
$LATITUDE
 40
1
  9
$LONGITUDE
 40
1
  9
$NORTHDIRECTION
 40
0
  9
$TIMEZONE
 70
-8000
  9
$LIGHTGLYPHDISPLAY
280
    1
  9
$TILEMODELIGHTSYNCH
280
    1
  9
$SOLIDHIST
280
    1
  9
$SHOWHIST
280
    1
  9
$DWFFRAME
280
    2
  9
$DGNFRAME
280
    0
  9
$REALWORLDSCALE
290
    1
  9
$INTERFERECOLOR
 62
    1
  9
$CSHADOW
280
    0
  9
$SHADOWPLANELOCATION
 40
0
  0
ENDSEC
  0
SECTION
  2
CLASSES
  0
ENDSEC
  0
SECTION
  2
TABLES
  0
TABLE
  2
VPORT
  5
8
330
0
100
AcDbSymbolTable
 70
    1
  0
VPORT
  5
31
330
2
100
AcDbSymbolTableRecord
100
AcDbViewportTableRecord
  2
*ACTIVE
 70
    0
 10
0
 20
0
 11
1
 21
1
 12
1505.938707145581
 22
314.9768321311076
 13
0
 23
0
 14
10
 24
10
 15
10
 25
10
 16
0
 26
0
 36
1
 17
0
 27
0
 37
0
 40
578.952917830192
 41
2.053833605220228
 42
50
 43
0
 44
0
 50
0
 51
0
 71
    0
 72
  100
 73
    1
 74
    3
 75
    0
 76
    0
 77
    0
 78
    0
281
    0
 65
    1
110
0
120
0
130
0
111
1
121
0
131
0
112
0
122
1
132
0
 79
    0
146
0
348
10020
 60
    7
 61
    5
292
1
282
    1
141
0
142
0
 63
  250
421
3358443
  0
ENDTAB
  0
TABLE
  2
LTYPE
  5
5
330
0
100
AcDbSymbolTable
 70
    4
  0
LTYPE
  5
14
330
5
100
AcDbSymbolTableRecord
100
AcDbLinetypeTableRecord
  2
ByBlock
 70
    0
  3

 72
   65
 73
    0
 40
0
  0
LTYPE
  5
15
330
5
100
AcDbSymbolTableRecord
100
AcDbLinetypeTableRecord
  2
ByLayer
 70
    0
  3

 72
   65
 73
    0
 40
0
  0
LTYPE
  5
16
330
5
100
AcDbSymbolTableRecord
100
AcDbLinetypeTableRecord
  2
Continuous
 70
    0
  3
Solid line
 72
   65
 73
    0
 40
0
  0
LTYPE
  5
32
330
5
100
AcDbSymbolTableRecord
100
AcDbLinetypeTableRecord
  2
DOT
 70
    0
  3
Dot . . . . . . . . . . . . . . . . . . . . . .
 72
   65
 73
    2
 40
6.35
 49
0
 74
    0
 49
-6.35
 74
    0
  0
LTYPE
  5
33
330
5
100
AcDbSymbolTableRecord
100
AcDbLinetypeTableRecord
  2
DOTTINY
 70
    0
  3
Dot (.15x) .....................................
 72
   65
 73
    2
 40
0.9525
 49
0
 74
    0
 49
-0.9525
 74
    0
  0
LTYPE
  5
34
330
5
100
AcDbSymbolTableRecord
100
AcDbLinetypeTableRecord
  2
DOT2
 70
    0
  3
Dot (.5x) .....................................
 72
   65
 73
    2
 40
3.175
 49
0
 74
    0
 49
-3.175
 74
    0
  0
LTYPE
  5
35
330
5
100
AcDbSymbolTableRecord
100
AcDbLinetypeTableRecord
  2
DOTX2
 70
    0
  3
Dot (2x) .  .  .  .  .  .  .  .  .  .  .  .  .
 72
   65
 73
    2
 40
12.7
 49
0
 74
    0
 49
-12.7
 74
    0
  0
LTYPE
  5
36
330
5
100
AcDbSymbolTableRecord
100
AcDbLinetypeTableRecord
  2
DASHED
 70
    0
  3
Dashed _ _ _ _ _ _ _ _ _ _ _ _ _ _ _ _ _
 72
   65
 73
    2
 40
19.05
 49
12.7
 74
    0
 49
-6.35
 74
    0
  0
LTYPE
  5
37
330
5
100
AcDbSymbolTableRecord
100
AcDbLinetypeTableRecord
  2
DASHEDTINY
 70
    0
  3
Dashed (.15x) _ _ _ _ _ _ _ _ _ _ _ _ _ _ _ _ _
 72
   65
 73
    2
 40
2.8575
 49
1.905
 74
    0
 49
-0.9525
 74
    0
  0
LTYPE
  5
38
330
5
100
AcDbSymbolTableRecord
100
AcDbLinetypeTableRecord
  2
DASHED2
 70
    0
  3
Dashed (.5x) _ _ _ _ _ _ _ _ _ _ _ _ _ _ _ _ _
 72
   65
 73
    2
 40
9.524999999999999
 49
6.35
 74
    0
 49
-3.175
 74
    0
  0
LTYPE
  5
39
330
5
100
AcDbSymbolTableRecord
100
AcDbLinetypeTableRecord
  2
DASHEDX2
 70
    0
  3
Dashed (2x) ____  ____  ____  ____  ____  ___
 72
   65
 73
    2
 40
38.09999999999999
 49
25.4
 74
    0
 49
-12.7
 74
    0
  0
LTYPE
  5
3A
330
5
100
AcDbSymbolTableRecord
100
AcDbLinetypeTableRecord
  2
DASHDOT
 70
    0
  3
Dash dot __ . __ . __ . __ . __ . __ . __ . __
 72
   65
 73
    4
 40
25.4
 49
12.7
 74
    0
 49
-6.35
 74
    0
 49
0
 74
    0
 49
-6.35
 74
    0
  0
LTYPE
  5
3B
330
5
100
AcDbSymbolTableRecord
100
AcDbLinetypeTableRecord
  2
DASHDOTTINY
 70
    0
  3
Dash dot (.15x) _._._._._._._._._._._._._._._.
 72
   65
 73
    4
 40
3.81
 49
1.905
 74
    0
 49
-0.9525
 74
    0
 49
0
 74
    0
 49
-0.9525
 74
    0
  0
LTYPE
  5
3C
330
5
100
AcDbSymbolTableRecord
100
AcDbLinetypeTableRecord
  2
DASHDOT2
 70
    0
  3
Dash dot (.5x) _._._._._._._._._._._._._._._.
 72
   65
 73
    4
 40
12.7
 49
6.35
 74
    0
 49
-3.175
 74
    0
 49
0
 74
    0
 49
-3.175
 74
    0
  0
LTYPE
  5
3D
330
5
100
AcDbSymbolTableRecord
100
AcDbLinetypeTableRecord
  2
DASHDOTX2
 70
    0
  3
Dash dot (2x) ____  .  ____  .  ____  .  ___
 72
   65
 73
    4
 40
50.8
 49
25.4
 74
    0
 49
-12.7
 74
    0
 49
0
 74
    0
 49
-12.7
 74
    0
  0
LTYPE
  5
3E
330
5
100
AcDbSymbolTableRecord
100
AcDbLinetypeTableRecord
  2
DIVIDE
 70
    0
  3
Divide ____ . . ____ . . ____ . . ____ . . ____
 72
   65
 73
    6
 40
31.75
 49
12.7
 74
    0
 49
-6.35
 74
    0
 49
0
 74
    0
 49
-6.35
 74
    0
 49
0
 74
    0
 49
-6.35
 74
    0
  0
LTYPE
  5
3F
330
5
100
AcDbSymbolTableRecord
100
AcDbLinetypeTableRecord
  2
DIVIDETINY
 70
    0
  3
Divide (.15x) __..__..__..__..__..__..__..__.._
 72
   65
 73
    6
 40
4.7625
 49
1.905
 74
    0
 49
-0.9525
 74
    0
 49
0
 74
    0
 49
-0.9525
 74
    0
 49
0
 74
    0
 49
-0.9525
 74
    0
  0
LTYPE
  5
40
330
5
100
AcDbSymbolTableRecord
100
AcDbLinetypeTableRecord
  2
DIVIDE2
 70
    0
  3
Divide (.5x) __..__..__..__..__..__..__..__.._
 72
   65
 73
    6
 40
15.875
 49
6.35
 74
    0
 49
-3.175
 74
    0
 49
0
 74
    0
 49
-3.175
 74
    0
 49
0
 74
    0
 49
-3.175
 74
    0
  0
LTYPE
  5
41
330
5
100
AcDbSymbolTableRecord
100
AcDbLinetypeTableRecord
  2
DIVIDEX2
 70
    0
  3
Divide (2x) ________  .  .  ________  .  .  _
 72
   65
 73
    6
 40
63.5
 49
25.4
 74
    0
 49
-12.7
 74
    0
 49
0
 74
    0
 49
-12.7
 74
    0
 49
0
 74
    0
 49
-12.7
 74
    0
  0
LTYPE
  5
42
330
5
100
AcDbSymbolTableRecord
100
AcDbLinetypeTableRecord
  2
BORDER
 70
    0
  3
Border __ __ . __ __ . __ __ . __ __ . __ __ .
 72
   65
 73
    6
 40
44.45
 49
12.7
 74
    0
 49
-6.35
 74
    0
 49
12.7
 74
    0
 49
-6.35
 74
    0
 49
0
 74
    0
 49
-6.35
 74
    0
  0
LTYPE
  5
43
330
5
100
AcDbSymbolTableRecord
100
AcDbLinetypeTableRecord
  2
BORDERTINY
 70
    0
  3
Border (.15x) __.__.__.__.__.__.__.__.__.__.__.
 72
   65
 73
    6
 40
6.6675
 49
1.905
 74
    0
 49
-0.9525
 74
    0
 49
1.905
 74
    0
 49
-0.9525
 74
    0
 49
0
 74
    0
 49
-0.9525
 74
    0
  0
LTYPE
  5
44
330
5
100
AcDbSymbolTableRecord
100
AcDbLinetypeTableRecord
  2
BORDER2
 70
    0
  3
Border (.5x) __.__.__.__.__.__.__.__.__.__.__.
 72
   65
 73
    6
 40
22.225
 49
6.35
 74
    0
 49
-3.175
 74
    0
 49
6.35
 74
    0
 49
-3.175
 74
    0
 49
0
 74
    0
 49
-3.175
 74
    0
  0
LTYPE
  5
45
330
5
100
AcDbSymbolTableRecord
100
AcDbLinetypeTableRecord
  2
BORDERX2
 70
    0
  3
Border (2x) ____  ____  .  ____  ____  .  ___
 72
   65
 73
    6
 40
88.89999999999999
 49
25.4
 74
    0
 49
-12.7
 74
    0
 49
25.4
 74
    0
 49
-12.7
 74
    0
 49
0
 74
    0
 49
-12.7
 74
    0
  0
LTYPE
  5
46
330
5
100
AcDbSymbolTableRecord
100
AcDbLinetypeTableRecord
  2
CENTER
 70
    0
  3
Center ____ _ ____ _ ____ _ ____ _ ____ _ ____
 72
   65
 73
    4
 40
50.8
 49
31.75
 74
    0
 49
-6.35
 74
    0
 49
6.35
 74
    0
 49
-6.35
 74
    0
  0
LTYPE
  5
47
330
5
100
AcDbSymbolTableRecord
100
AcDbLinetypeTableRecord
  2
CENTERTINY
 70
    0
  3
Center (.15x) ___ _ ___ _ ___ _ ___ _ ___ _ ___
 72
   65
 73
    4
 40
7.619999999999999
 49
4.7625
 74
    0
 49
-0.9525
 74
    0
 49
0.9525
 74
    0
 49
-0.9525
 74
    0
  0
LTYPE
  5
48
330
5
100
AcDbSymbolTableRecord
100
AcDbLinetypeTableRecord
  2
CENTER2
 70
    0
  3
Center (.5x) ___ _ ___ _ ___ _ ___ _ ___ _ ___
 72
   65
 73
    4
 40
28.575
 49
19.05
 74
    0
 49
-3.175
 74
    0
 49
3.175
 74
    0
 49
-3.175
 74
    0
  0
LTYPE
  5
49
330
5
100
AcDbSymbolTableRecord
100
AcDbLinetypeTableRecord
  2
CENTERX2
 70
    0
  3
Center (2x) ________  __  ________  __  _____
 72
   65
 73
    4
 40
101.6
 49
63.5
 74
    0
 49
-12.7
 74
    0
 49
12.7
 74
    0
 49
-12.7
 74
    0
  0
ENDTAB
  0
TABLE
  2
LAYER
  5
2
330
0
100
AcDbSymbolTable
 70
    1
  0
LAYER
  5
10
330
2
100
AcDbSymbolTableRecord
100
AcDbLayerTableRecord
  2
0
 70
    0
 62
    7
  6
CONTINUOUS
370
    0
390
F
  0
LAYER
  5
4A
330
2
100
AcDbSymbolTableRecord
100
AcDbLayerTableRecord
  2
hard
 70
    1
 62
   96
420
32768
  6
DASHDOT2
370
    0
390
F
  0
LAYER
  5
4B
330
2
100
AcDbSymbolTableRecord
100
AcDbLayerTableRecord
  2
maaiveld
 70
    0
 62
   96
420
32768
  6
CONTINUOUS
370
    0
390
F
  0
LAYER
  5
4C
330
2
100
AcDbSymbolTableRecord
100
AcDbLayerTableRecord
  2
meta
 70
    1
 62
  136
420
32896
  6
DOTTINY
370
    0
390
F
  0
ENDTAB
  0
TABLE
  2
STYLE
  5
3
330
0
100
AcDbSymbolTable
 70
    3
  0
STYLE
  5
4D
330
2
100
AcDbSymbolTableRecord
100
AcDbTextStyleTableRecord
  2
Standard
 70
    0
 40
0
 41
1
 50
0
 71
    0
 42
1
  3
txt
  4

  0
ENDTAB
  0
TABLE
  2
VIEW
  5
6
330
0
100
AcDbSymbolTable
 70
    0
  0
ENDTAB
  0
TABLE
  2
UCS
  5
7
330
0
100
AcDbSymbolTable
 70
    0
  0
ENDTAB
  0
TABLE
  2
APPID
  5
9
330
0
100
AcDbSymbolTable
 70
    1
  0
APPID
  5
12
330
9
100
AcDbSymbolTableRecord
100
AcDbRegAppTableRecord
  2
ACAD
 70
    0
  0
APPID
  5
4E
330
9
100
AcDbSymbolTableRecord
100
AcDbRegAppTableRecord
  2
LibreCad
 70
    0
  0
ENDTAB
  0
TABLE
  2
DIMSTYLE
  5
A
330
0
100
AcDbSymbolTable
 70
    1
100
AcDbDimStyleTable
 71
    1
  0
DIMSTYLE
105
4F
330
A
100
AcDbSymbolTableRecord
100
AcDbDimStyleTableRecord
  2
Standard
 70
    0
 40
1
 41
2.5
 42
0.625
 43
0.38
 44
1.25
 45
0
 46
0
 47
0
 48
0
 49
1
140
2.5
141
0.09
142
0
143
25.4
144
1
145
0
146
1
147
0.625
148
0
 71
    0
 72
    0
 73
    0
 74
    1
 75
    0
 76
    0
 77
    0
 78
    1
 79
    0
170
    0
171
    2
172
    0
173
    0
174
    0
175
    0
176
    0
177
    0
178
    0
179
    2
271
    4
272
    4
273
    2
274
    2
275
    0
276
    0
277
    2
278
    0
279
    0
280
    0
281
    0
282
    0
283
    1
284
    0
285
    0
286
    0
288
    0
289
    3
340
standard
341

371
   -2
372
   -2
  0
ENDTAB
  0
TABLE
  2
BLOCK_RECORD
  5
1
330
0
100
AcDbSymbolTable
 70
    2
  0
BLOCK_RECORD
  5
1F
330
1
100
AcDbSymbolTableRecord
100
AcDbBlockTableRecord
  2
*Model_Space
 70
    0
280
    1
281
    0
  0
BLOCK_RECORD
  5
1E
330
1
100
AcDbSymbolTableRecord
100
AcDbBlockTableRecord
  2
*Paper_Space
 70
    0
280
    1
281
    0
  0
ENDTAB
  0
ENDSEC
  0
SECTION
  2
BLOCKS
  0
BLOCK
  5
20
330
1F
100
AcDbEntity
  8
0
100
AcDbBlockBegin
  2
*Model_Space
 70
    0
 10
0
 20
0
 30
0
  3
*Model_Space
  1

  0
ENDBLK
  5
21
330
1F
100
AcDbEntity
  8
0
100
AcDbBlockEnd
  0
BLOCK
  5
1C
330
1B
100
AcDbEntity
  8
0
100
AcDbBlockBegin
  2
*Paper_Space
 70
    0
 10
0
 20
0
 30
0
  3
*Paper_Space
  1

  0
ENDBLK
  5
1D
330
1F
100
AcDbEntity
  8
0
100
AcDbBlockEnd
  0
ENDSEC
  0
SECTION
  2
ENTITIES
  0
LINE
  5
50
100
AcDbEntity
  8
0
  6
ByLayer
 62
  256
370
   -1
100
AcDbLine
 10
677.4425084529662
 20
264.3960002663468
 11
677.4425084529662
 21
153.3960002663468
  0
LINE
  5
51
100
AcDbEntity
  8
0
  6
ByLayer
 62
  256
370
   -1
100
AcDbLine
 10
567.4425084529662
 20
153.3960002663468
 11
567.4425084529662
 21
158.3629916773557
  0
LINE
  5
52
100
AcDbEntity
  8
meta
  6
ByLayer
 62
  256
370
   -1
100
AcDbLine
 10
506.4769963383724
 20
272.3615123809408
 11
622.4425084529662
 21
156.3960002663468
  0
LINE
  5
53
100
AcDbEntity
  8
meta
  6
ByLayer
 62
  256
370
   -1
100
AcDbLine
 10
622.4425084529662
 20
314.3960002663468
 11
622.4425084529662
 21
103.3960002663468
  0
LINE
  5
54
100
AcDbEntity
  8
meta
  6
ByLayer
 62
  256
370
   -1
100
AcDbLine
 10
364.9425084529662
 20
391.929008855338
 11
439.9425084529662
 21
391.9290088553377
  0
LINE
  5
55
100
AcDbEntity
  8
meta
  6
ByLayer
 62
  256
370
   -1
100
AcDbLine
 10
386.9094998639753
 20
338.896000266347
 11
439.9425084529662
 21
391.9290088553377
  0
LINE
  5
56
100
AcDbEntity
  8
meta
  6
ByLayer
 62
  256
370
   -1
100
AcDbLine
 10
402.4425084529662
 20
376.3960002663469
 11
459.3879449355959
 21
319.4505637837166
  0
LINE
  5
57
100
AcDbEntity
  8
meta
  6
ByLayer
 62
  256
370
   -1
100
AcDbLine
 10
402.4425084529662
 20
376.3960002663469
 11
402.4425084529666
 21
456.9290088553379
  0
ARC
  5
58
100
AcDbEntity
  8
0
  6
ByLayer
 62
  256
370
   -1
100
AcDbCircle
 10
490.6409932628012
 20
412.9290088553374
 40
50.69848480983501
100
AcDbArc
 50
179.9999999999996
 51
224.9999999999996
  0
ARC
  5
59
100
AcDbEntity
  8
0
  6
ByLayer
 62
  256
370
   -1
100
AcDbCircle
 10
490.6409932628012
 20
412.9290088553374
 40
125.6984848098349
100
AcDbArc
 50
179.9999999999996
 51
224.9999999999997
  0
LINE
  5
5A
100
AcDbEntity
  8
meta
  6
ByLayer
 62
  256
370
   -1
100
AcDbLine
 10
364.9425084529662
 20
360.8629916773557
 11
432.8714406411004
 21
292.9340594892212
  0
LINE
  5
5B
100
AcDbEntity
  8
0
  6
ByLayer
 62
  256
370
   -1
100
AcDbLine
 10
532.9935006328681
 20
298.8780166754362
 11
485.9044492300918
 21
345.9670680782119
  0
LINE
  5
5C
100
AcDbEntity
  8
0
  6
ByLayer
 62
  256
370
   -1
100
AcDbLine
 10
479.9604920438769
 20
245.8450080864452
 11
432.8714406411004
 21
292.9340594892212
  0
LINE
  5
5D
100
AcDbEntity
  8
0
  6
ByLayer
 62
  256
370
   -1
100
AcDbLine
 10
559.4425084529662
 20
103.3960002663468
 11
559.4425084529662
 21
153.3960002663468
  0
LINE
  5
5E
100
AcDbEntity
  8
0
  6
ByLayer
 62
  256
370
   -1
100
AcDbLine
 10
685.4425084529662
 20
153.3960002663468
 11
685.4425084529662
 21
103.3960002663468
  0
LINE
  5
5F
100
AcDbEntity
  8
0
  6
ByLayer
 62
  256
370
   -1
100
AcDbLine
 10
685.4425084529662
 20
103.3960002663468
 11
559.4425084529662
 21
103.3960002663468
  0
LINE
  5
60
100
AcDbEntity
  8
0
  6
ByLayer
 62
  256
370
   -1
100
AcDbLine
 10
474.3036377943845
 20
240.1881538369529
 11
538.6503548823605
 21
304.5348709249286
  0
LINE
  5
61
100
AcDbEntity
  8
0
  6
ByLayer
 62
  256
370
   -1
100
AcDbLine
 10
505.4163361665926
 20
209.0754554647446
 11
474.3036377943845
 21
240.1881538369529
  0
LINE
  5
62
100
AcDbEntity
  8
0
  6
ByLayer
 62
  256
370
   -1
100
AcDbLine
 10
685.4425084529662
 20
314.3960002663468
 11
559.4425084529662
 21
314.3960002663468
  0
LINE
  5
63
100
AcDbEntity
  8
0
  6
ByLayer
 62
  256
370
   -1
100
AcDbLine
 10
460.4486051073761
 20
382.7366206999124
 11
491.5613034795842
 21
351.6239223277043
  0
LINE
  5
64
100
AcDbEntity
  8
0
  6
ByLayer
 62
  256
370
   -1
100
AcDbLine
 10
427.2145863916079
 20
287.2772052397288
 11
491.5613034795842
 21
351.6239223277043
  0
LINE
  5
65
100
AcDbEntity
  8
0
  6
ByLayer
 62
  256
370
   -1
100
AcDbLine
 10
396.1018880193997
 20
318.389903611937
 11
427.2145863916079
 21
287.2772052397288
  0
LINE
  5
66
100
AcDbEntity
  8
0
  6
ByLayer
 62
  256
370
   -1
100
AcDbLine
 10
447.9425084529666
 20
412.9290088553377
 11
447.9425084529665
 21
456.9290088553374
  0
LINE
  5
67
100
AcDbEntity
  8
0
  6
ByLayer
 62
  256
370
   -1
100
AcDbLine
 10
356.9425084529665
 20
456.9290088553378
 11
447.9425084529665
 21
456.9290088553374
  0
LINE
  5
68
100
AcDbEntity
  8
0
  6
ByLayer
 62
  256
370
   -1
100
AcDbLine
 10
538.6503548823605
 20
304.5348709249286
 11
559.4425084529662
 21
283.742717354323
  0
LINE
  5
69
100
AcDbEntity
  8
0
  6
ByLayer
 62
  256
370
   -1
100
AcDbLine
 10
559.4425084529662
 20
283.742717354323
 11
559.4425084529662
 21
314.3960002663468
  0
LINE
  5
6A
100
AcDbEntity
  8
0
  6
ByLayer
 62
  256
370
   -1
100
AcDbLine
 10
511.073190416085
 20
214.7323097142371
 11
505.4163361665926
 21
209.0754554647446
  0
LINE
  5
6B
100
AcDbEntity
  8
0
  6
ByLayer
 62
  256
370
   -1
100
AcDbLine
 10
511.073190416085
 20
214.7323097142371
 11
567.4425084529662
 21
158.3629916773557
  0
LINE
  5
6C
100
AcDbEntity
  8
0
  6
ByLayer
 62
  256
370
   -1
100
AcDbLine
 10
685.4425084529662
 20
264.3960002663468
 11
677.4425084529662
 21
264.3960002663468
  0
LINE
  5
6D
100
AcDbEntity
  8
0
  6
ByLayer
 62
  256
370
   -1
100
AcDbLine
 10
685.4425084529662
 20
153.3960002663468
 11
677.4425084529662
 21
153.3960002663468
  0
LINE
  5
6E
100
AcDbEntity
  8
0
  6
ByLayer
 62
  256
370
   -1
100
AcDbLine
 10
567.4425084529662
 20
153.3960002663468
 11
559.4425084529662
 21
153.3960002663468
  0
LINE
  5
6F
100
AcDbEntity
  8
0
  6
ByLayer
 62
  256
370
   -1
100
AcDbLine
 10
460.4486051073761
 20
382.7366206999124
 11
454.7917508578835
 21
377.0797664504202
  0
LINE
  5
70
100
AcDbEntity
  8
0
  6
ByLayer
 62
  256
370
   -1
100
AcDbLine
 10
401.7587422688923
 20
324.0467578614293
 11
396.1018880193997
 21
318.389903611937
  0
LINE
  5
71
100
AcDbEntity
  8
0
  6
ByLayer
 62
  256
370
   -1
100
AcDbLine
 10
447.9425084529666
 20
412.9290088553377
 11
439.9425084529662
 21
412.9290088553378
  0
LINE
  5
72
100
AcDbEntity
  8
meta
  6
ByLayer
 62
  256
370
   -1
100
AcDbLine
 10
506.4769963383724
 20
272.3615123809408
 11
459.3879449355959
 21
319.4505637837166
  0
LINE
  5
73
100
AcDbEntity
  8
meta
  6
ByLayer
 62
  256
370
   -1
100
AcDbLine
 10
479.960492043877
 20
245.845008086445
 11
432.8714406411005
 21
292.9340594892209
  0
LINE
  5
74
100
AcDbEntity
  8
meta
  6
ByLayer
 62
  256
370
   -1
100
AcDbLine
 10
479.9604920438768
 20
245.8450080864452
 11
595.9260041584706
 21
129.8794959718513
  0
LINE
  5
75
100
AcDbEntity
  8
meta
  6
ByLayer
 62
  256
370
   -1
100
AcDbLine
 10
532.9935006328678
 20
298.8780166754364
 11
648.9590127474617
 21
182.9125045608424
  0
LINE
  5
76
100
AcDbEntity
  8
meta
  6
ByLayer
 62
  256
370
   -1
100
AcDbLine
 10
532.9935006328677
 20
298.8780166754364
 11
485.9044492300912
 21
345.9670680782123
  0
LINE
  5
77
100
AcDbEntity
  8
meta
  6
ByLayer
 62
  256
370
   -1
100
AcDbLine
 10
428.9590127474619
 20
402.9125045608423
 11
485.9044492300916
 21
345.9670680782119
  0
LINE
  5
78
100
AcDbEntity
  8
meta
  6
ByLayer
 62
  256
370
   -1
100
AcDbLine
 10
439.9425084529662
 20
376.3960002663467
 11
439.9425084529666
 21
456.9290088553377
  0
LINE
  5
79
100
AcDbEntity
  8
meta
  6
ByLayer
 62
  256
370
   -1
100
AcDbLine
 10
567.4425084529662
 20
314.3960002663468
 11
567.4425084529662
 21
103.3960002663468
  0
LINE
  5
7A
100
AcDbEntity
  8
hard
  6
ByLayer
 62
  256
370
   -1
100
AcDbLine
 10
402.4425084529666
 20
456.9290088553379
 11
402.4425084529662
 21
376.3960002663469
  0
LINE
  5
7B
100
AcDbEntity
  8
hard
  6
ByLayer
 62
  256
370
   -1
100
AcDbLine
 10
402.4425084529662
 20
376.3960002663469
 11
622.4425084529662
 21
156.3960002663468
  0
LINE
  5
7C
100
AcDbEntity
  8
hard
  6
ByLayer
 62
  256
370
   -1
100
AcDbLine
 10
622.4425084529662
 20
314.3960002663468
 11
622.4425084529662
 21
103.3960002663468
  0
LINE
  5
7D
100
AcDbEntity
  8
meta
  6
ByLayer
 62
  256
370
   -1
100
AcDbLine
 10
364.9425084529662
 20
360.8629916773557
 11
356.9425084529665
 21
456.9290088553378
  0
LINE
  5
7E
100
AcDbEntity
  8
0
  6
ByLayer
 62
  256
370
   -1
100
AcDbLine
 10
685.4425084529662
 20
314.3960002663468
 11
685.4425084529662
 21
264.3960002663468
  0
LINE
  5
7F
100
AcDbEntity
  8
0
  6
ByLayer
 62
  256
370
   -1
100
AcDbLine
 10
356.9425084529665
 20
412.929008855338
 11
356.9425084529665
 21
456.9290088553378
  0
LINE
  5
80
100
AcDbEntity
  8
0
  6
ByLayer
 62
  256
370
   -1
100
AcDbLine
 10
364.9425084529662
 20
412.9290088553382
 11
356.9425084529665
 21
412.929008855338
  0
LINE
  5
81
100
AcDbEntity
  8
meta
  6
ByLayer
 62
  256
370
   -1
100
AcDbLine
 10
677.4425084529662
 20
314.3960002663468
 11
677.4425084529662
 21
103.3960002663469
  0
LINE
  5
82
100
AcDbEntity
  8
meta
  6
ByLayer
 62
  256
370
   -1
100
AcDbLine
 10
2570.05409806273
 20
153.8681587304492
 11
2460.05409806273
 21
153.8681587304492
  0
LINE
  5
83
100
AcDbEntity
  8
meta
  6
ByLayer
 62
  256
370
   -1
100
AcDbLine
 10
2553.94497102799
 20
192.7590316957093
 11
2476.16322509747
 21
114.9772857651891
  0
LINE
  5
84
100
AcDbEntity
  8
0
  6
ByLayer
 62
  256
370
   -1
100
AcDbLine
 10
2452.05409806273
 20
74.86815873044907
 11
2452.05409806273
 21
124.8681587304491
  0
LINE
  5
85
100
AcDbEntity
  8
0
  6
ByLayer
 62
  256
370
   -1
100
AcDbLine
 10
2578.05409806273
 20
124.8681587304491
 11
2578.05409806273
 21
74.86815873044907
  0
LINE
  5
86
100
AcDbEntity
  8
0
  6
ByLayer
 62
  256
370
   -1
100
AcDbLine
 10
2578.05409806273
 20
74.86815873044907
 11
2452.05409806273
 21
74.86815873044907
  0
LINE
  5
87
100
AcDbEntity
  8
0
  6
ByLayer
 62
  256
370
   -1
100
AcDbLine
 10
2375.046955387794
 20
204.7798469758804
 11
2339.691616328466
 21
240.1351860352078
  0
LINE
  5
88
100
AcDbEntity
  8
0
  6
ByLayer
 62
  256
370
   -1
100
AcDbLine
 10
2428.787070757971
 20
329.2306404647127
 11
2339.691616328466
 21
240.1351860352078
  0
LINE
  5
89
100
AcDbEntity
  8
0
  6
ByLayer
 62
  256
370
   -1
100
AcDbLine
 10
2452.05409806273
 20
305.963613159954
 11
2428.787070757971
 21
329.2306404647127
  0
LINE
  5
8A
100
AcDbEntity
  8
0
  6
ByLayer
 62
  256
370
   -1
100
AcDbLine
 10
2452.05409806273
 20
338.8681587304492
 11
2452.05409806273
 21
305.963613159954
  0
LINE
  5
8B
100
AcDbEntity
  8
0
  6
ByLayer
 62
  256
370
   -1
100
AcDbLine
 10
2578.05409806273
 20
338.8681587304492
 11
2452.05409806273
 21
338.8681587304492
  0
LINE
  5
8C
100
AcDbEntity
  8
0
  6
ByLayer
 62
  256
370
   -1
100
AcDbLine
 10
2578.05409806273
 20
338.8681587304492
 11
2578.05409806273
 21
288.8681587304492
  0
LINE
  5
8D
100
AcDbEntity
  8
meta
  6
ByLayer
 62
  256
370
   -1
100
AcDbLine
 10
2570.05409806273
 20
338.8681587304492
 11
2570.05409806273
 21
288.8681587304492
  0
LINE
  5
8E
100
AcDbEntity
  8
meta
  6
ByLayer
 62
  256
370
   -1
100
AcDbLine
 10
2570.05409806273
 20
124.8681587304491
 11
2570.05409806273
 21
74.86815873044907
  0
LINE
  5
8F
100
AcDbEntity
  8
meta
  6
ByLayer
 62
  256
370
   -1
100
AcDbLine
 10
2460.05409806273
 20
74.86815873044907
 11
2460.05409806273
 21
124.8681587304491
  0
LINE
  5
90
100
AcDbEntity
  8
meta
  6
ByLayer
 62
  256
370
   -1
100
AcDbLine
 10
2570.05409806273
 20
288.8681587304492
 11
2570.05409806273
 21
124.8681587304491
  0
LINE
  5
91
100
AcDbEntity
  8
meta
  6
ByLayer
 62
  256
370
   -1
100
AcDbLine
 10
2460.05409806273
 20
124.8681587304491
 11
2460.05409806273
 21
288.8681587304492
  0
LINE
  5
92
100
AcDbEntity
  8
meta
  6
ByLayer
 62
  256
370
   -1
100
AcDbLine
 10
2458.485555567806
 20
288.218447155893
 11
2423.130216508479
 21
323.5737862152204
  0
LINE
  5
93
100
AcDbEntity
  8
meta
  6
ByLayer
 62
  256
370
   -1
100
AcDbLine
 10
2380.703809637286
 20
210.4367012253729
 11
2345.348470577958
 21
245.7920402847002
  0
LINE
  5
94
100
AcDbEntity
  8
meta
  6
ByLayer
 62
  256
370
   -1
100
AcDbLine
 10
2458.485555567806
 20
288.2184471558932
 11
2553.94497102799
 21
192.7590316957093
  0
LINE
  5
95
100
AcDbEntity
  8
meta
  6
ByLayer
 62
  256
370
   -1
100
AcDbLine
 10
2380.703809637286
 20
210.4367012253732
 11
2476.16322509747
 21
114.9772857651891
  0
LINE
  5
96
100
AcDbEntity
  8
meta
  6
ByLayer
 62
  256
370
   -1
100
AcDbLine
 10
2460.05409806273
 20
338.8681587304492
 11
2460.05409806273
 21
286.6499046609695
  0
LINE
  5
97
100
AcDbEntity
  8
0
  6
ByLayer
 62
  256
370
   -1
100
AcDbLine
 10
2578.05409806273
 20
288.8681587304492
 11
2570.05409806273
 21
288.8681587304492
  0
LINE
  5
98
100
AcDbEntity
  8
0
  6
ByLayer
 62
  256
370
   -1
100
AcDbLine
 10
2380.703809637286
 20
210.4367012253729
 11
2375.046955387794
 21
204.7798469758804
  0
LINE
  5
99
100
AcDbEntity
  8
0
  6
ByLayer
 62
  256
370
   -1
100
AcDbLine
 10
2578.05409806273
 20
124.8681587304491
 11
2570.05409806273
 21
124.8681587304491
  0
LINE
  5
9A
100
AcDbEntity
  8
0
  6
ByLayer
 62
  256
370
   -1
100
AcDbLine
 10
2460.05409806273
 20
124.8681587304491
 11
2452.05409806273
 21
124.8681587304491
  0
LINE
  5
9B
100
AcDbEntity
  8
hard
  6
ByLayer
 62
  256
370
   -1
100
AcDbLine
 10
2515.05409806273
 20
338.8681587304492
 11
2515.05409806273
 21
74.86815873044907
  0
LINE
  5
9C
100
AcDbEntity
  8
0
  6
ByLayer
 62
  256
370
   -1
100
AcDbLine
 10
2570.05409806273
 20
288.8681587304492
 11
2570.05409806273
 21
124.8681587304491
  0
LINE
  5
9D
100
AcDbEntity
  8
0
  6
ByLayer
 62
  256
370
   -1
100
AcDbLine
 10
2460.05409806273
 20
131.086412799929
 11
2380.703809637286
 21
210.4367012253732
  0
LINE
  5
9E
100
AcDbEntity
  8
0
  6
ByLayer
 62
  256
370
   -1
100
AcDbLine
 10
2460.05409806273
 20
131.086412799929
 11
2460.05409806273
 21
124.8681587304491
  0
LINE
  5
9F
100
AcDbEntity
  8
hard
  6
ByLayer
 62
  256
370
   -1
100
AcDbLine
 10
2295.05409806273
 20
373.8681587304494
 11
2515.05409806273
 21
153.8681587304492
  0
LINE
  5
A0
100
AcDbEntity
  8
meta
  6
ByLayer
 62
  256
370
   -1
100
AcDbLine
 10
2240.05409806273
 20
396.6499046609692
 11
2350.05409806273
 21
396.6499046609692
  0
LINE
  5
A1
100
AcDbEntity
  8
meta
  6
ByLayer
 62
  256
370
   -1
100
AcDbLine
 10
2272.27235213221
 20
318.8681587304491
 11
2350.05409806273
 21
396.6499046609692
  0
LINE
  5
A2
100
AcDbEntity
  8
hard
  6
ByLayer
 62
  256
370
   -1
100
AcDbLine
 10
2295.05409806273
 20
373.8681587304494
 11
2367.024660811207
 21
301.8975959819719
  0
ARC
  5
A3
100
AcDbEntity
  8
0
  6
ByLayer
 62
  256
370
   -1
100
AcDbCircle
 10
2420.06629137155
 20
425.6499046609692
 40
70.01219330881983
100
AcDbArc
 50
180
 51
225
  0
ARC
  5
A4
100
AcDbEntity
  8
0
  6
ByLayer
 62
  256
370
   -1
100
AcDbCircle
 10
2420.06629137155
 20
425.6499046609692
 40
180.0121933088197
100
AcDbArc
 50
180
 51
224.9999999999999
  0
LINE
  5
A5
100
AcDbEntity
  8
0
  6
ByLayer
 62
  256
370
   -1
100
AcDbLine
 10
2358.05409806273
 20
475.6499046609692
 11
2358.05409806273
 21
425.6499046609692
  0
LINE
  5
A6
100
AcDbEntity
  8
0
  6
ByLayer
 62
  256
370
   -1
100
AcDbLine
 10
2232.05409806273
 20
475.6499046609692
 11
2232.05409806273
 21
425.6499046609692
  0
LINE
  5
A7
100
AcDbEntity
  8
0
  6
ByLayer
 62
  256
370
   -1
100
AcDbLine
 10
2232.05409806273
 20
475.6499046609692
 11
2358.05409806273
 21
475.6499046609692
  0
LINE
  5
A8
100
AcDbEntity
  8
0
  6
ByLayer
 62
  256
370
   -1
100
AcDbLine
 10
2376.217048966633
 20
381.8006622560519
 11
2411.57238802596
 21
346.4453231967244
  0
LINE
  5
A9
100
AcDbEntity
  8
0
  6
ByLayer
 62
  256
370
   -1
100
AcDbLine
 10
2287.121594537127
 20
292.7052078265467
 11
2322.476933596455
 21
257.3498687672192
  0
LINE
  5
AA
100
AcDbEntity
  8
0
  6
ByLayer
 62
  256
370
   -1
100
AcDbLine
 10
2322.476933596455
 20
257.3498687672192
 11
2411.57238802596
 21
346.4453231967244
  0
LINE
  5
AB
100
AcDbEntity
  8
0
  6
ByLayer
 62
  256
370
   -1
100
AcDbLine
 10
2232.05409806273
 20
425.6499046609692
 11
2240.05409806273
 21
425.6499046609692
  0
LINE
  5
AC
100
AcDbEntity
  8
0
  6
ByLayer
 62
  256
370
   -1
100
AcDbLine
 10
2287.121594537127
 20
292.7052078265467
 11
2292.77844878662
 21
298.3620620760392
  0
LINE
  5
AD
100
AcDbEntity
  8
0
  6
ByLayer
 62
  256
370
   -1
100
AcDbLine
 10
2350.05409806273
 20
425.6499046609692
 11
2358.05409806273
 21
425.6499046609692
  0
LINE
  5
AE
100
AcDbEntity
  8
0
  6
ByLayer
 62
  256
370
   -1
100
AcDbLine
 10
2370.56019471714
 20
376.1438080065593
 11
2376.217048966633
 21
381.8006622560519
  0
LINE
  5
AF
100
AcDbEntity
  8
meta
  6
ByLayer
 62
  256
370
   -1
100
AcDbLine
 10
2240.05409806273
 20
351.0864127999287
 11
2328.133787845948
 21
263.0067230167116
  0
LINE
  5
B0
100
AcDbEntity
  8
meta
  6
ByLayer
 62
  256
370
   -1
100
AcDbLine
 10
2350.05409806273
 20
396.6499046609692
 11
2405.915533776468
 21
340.7884689472318
  0
LINE
  5
B1
100
AcDbEntity
  8
0
  6
ByLayer
 62
  256
370
   -1
100
AcDbLine
 10
2328.133787845948
 20
263.0067230167116
 11
2345.348470577958
 21
245.7920402847002
  0
LINE
  5
B2
100
AcDbEntity
  8
0
  6
ByLayer
 62
  256
370
   -1
100
AcDbLine
 10
2405.915533776468
 20
340.7884689472318
 11
2423.130216508479
 21
323.5737862152204
  0
LINE
  5
B3
100
AcDbEntity
  8
meta
  6
ByLayer
 62
  256
370
   -1
100
AcDbLine
 10
1503.445220944193
 20
176.5181541904953
 11
1393.445220944193
 21
176.5181541904953
  0
LINE
  5
B4
100
AcDbEntity
  8
meta
  6
ByLayer
 62
  256
370
   -1
100
AcDbLine
 10
1487.336093909453
 20
215.4090271557554
 11
1409.554347978933
 21
137.6272812252352
  0
LINE
  5
B5
100
AcDbEntity
  8
0
  6
ByLayer
 62
  256
370
   -1
100
AcDbLine
 10
1385.445220944193
 20
97.51815419049518
 11
1385.445220944193
 21
147.5181541904952
  0
LINE
  5
B6
100
AcDbEntity
  8
0
  6
ByLayer
 62
  256
370
   -1
100
AcDbLine
 10
1511.445220944193
 20
147.5181541904952
 11
1511.445220944193
 21
97.51815419049518
  0
LINE
  5
B7
100
AcDbEntity
  8
0
  6
ByLayer
 62
  256
370
   -1
100
AcDbLine
 10
1511.445220944193
 20
97.51815419049518
 11
1385.445220944193
 21
97.51815419049518
  0
LINE
  5
B8
100
AcDbEntity
  8
0
  6
ByLayer
 62
  256
370
   -1
100
AcDbLine
 10
1308.438078269256
 20
227.4298424359265
 11
1273.082739209929
 21
262.7851814952539
  0
LINE
  5
B9
100
AcDbEntity
  8
0
  6
ByLayer
 62
  256
370
   -1
100
AcDbLine
 10
1362.178193639434
 20
351.8806359247588
 11
1273.082739209929
 21
262.7851814952539
  0
LINE
  5
BA
100
AcDbEntity
  8
0
  6
ByLayer
 62
  256
370
   -1
100
AcDbLine
 10
1385.445220944193
 20
328.6136086200002
 11
1362.178193639434
 21
351.8806359247588
  0
LINE
  5
BB
100
AcDbEntity
  8
0
  6
ByLayer
 62
  256
370
   -1
100
AcDbLine
 10
1385.445220944193
 20
361.5181541904953
 11
1385.445220944193
 21
328.6136086200002
  0
LINE
  5
BC
100
AcDbEntity
  8
0
  6
ByLayer
 62
  256
370
   -1
100
AcDbLine
 10
1511.445220944193
 20
361.5181541904953
 11
1385.445220944193
 21
361.5181541904953
  0
LINE
  5
BD
100
AcDbEntity
  8
0
  6
ByLayer
 62
  256
370
   -1
100
AcDbLine
 10
1511.445220944193
 20
361.5181541904953
 11
1511.445220944193
 21
311.5181541904953
  0
LINE
  5
BE
100
AcDbEntity
  8
meta
  6
ByLayer
 62
  256
370
   -1
100
AcDbLine
 10
1503.445220944193
 20
361.5181541904953
 11
1503.445220944193
 21
311.5181541904953
  0
LINE
  5
BF
100
AcDbEntity
  8
meta
  6
ByLayer
 62
  256
370
   -1
100
AcDbLine
 10
1503.445220944193
 20
147.5181541904952
 11
1503.445220944193
 21
97.51815419049518
  0
LINE
  5
C0
100
AcDbEntity
  8
meta
  6
ByLayer
 62
  256
370
   -1
100
AcDbLine
 10
1393.445220944193
 20
97.51815419049518
 11
1393.445220944193
 21
147.5181541904952
  0
LINE
  5
C1
100
AcDbEntity
  8
meta
  6
ByLayer
 62
  256
370
   -1
100
AcDbLine
 10
1503.445220944193
 20
311.5181541904953
 11
1503.445220944193
 21
147.5181541904952
  0
LINE
  5
C2
100
AcDbEntity
  8
meta
  6
ByLayer
 62
  256
370
   -1
100
AcDbLine
 10
1393.445220944193
 20
147.5181541904952
 11
1393.445220944193
 21
311.5181541904953
  0
LINE
  5
C3
100
AcDbEntity
  8
meta
  6
ByLayer
 62
  256
370
   -1
100
AcDbLine
 10
1391.876678449269
 20
310.8684426159392
 11
1356.521339389942
 21
346.2237816752665
  0
LINE
  5
C4
100
AcDbEntity
  8
meta
  6
ByLayer
 62
  256
370
   -1
100
AcDbLine
 10
1314.094932518749
 20
233.086696685419
 11
1278.739593459421
 21
268.4420357447464
  0
LINE
  5
C5
100
AcDbEntity
  8
meta
  6
ByLayer
 62
  256
370
   -1
100
AcDbLine
 10
1391.876678449269
 20
310.8684426159393
 11
1487.336093909453
 21
215.4090271557554
  0
LINE
  5
C6
100
AcDbEntity
  8
meta
  6
ByLayer
 62
  256
370
   -1
100
AcDbLine
 10
1314.094932518749
 20
233.0866966854193
 11
1409.554347978933
 21
137.6272812252352
  0
LINE
  5
C7
100
AcDbEntity
  8
meta
  6
ByLayer
 62
  256
370
   -1
100
AcDbLine
 10
1393.445220944193
 20
361.5181541904953
 11
1393.445220944193
 21
309.2999001210156
  0
LINE
  5
C8
100
AcDbEntity
  8
0
  6
ByLayer
 62
  256
370
   -1
100
AcDbLine
 10
1511.445220944193
 20
311.5181541904953
 11
1503.445220944193
 21
311.5181541904953
  0
LINE
  5
C9
100
AcDbEntity
  8
0
  6
ByLayer
 62
  256
370
   -1
100
AcDbLine
 10
1314.094932518749
 20
233.086696685419
 11
1308.438078269256
 21
227.4298424359265
  0
LINE
  5
CA
100
AcDbEntity
  8
0
  6
ByLayer
 62
  256
370
   -1
100
AcDbLine
 10
1511.445220944193
 20
147.5181541904952
 11
1503.445220944193
 21
147.5181541904952
  0
LINE
  5
CB
100
AcDbEntity
  8
0
  6
ByLayer
 62
  256
370
   -1
100
AcDbLine
 10
1393.445220944193
 20
147.5181541904952
 11
1385.445220944193
 21
147.5181541904952
  0
LINE
  5
CC
100
AcDbEntity
  8
hard
  6
ByLayer
 62
  256
370
   -1
100
AcDbLine
 10
1448.445220944193
 20
361.5181541904953
 11
1448.445220944193
 21
97.51815419049518
  0
LINE
  5
CD
100
AcDbEntity
  8
0
  6
ByLayer
 62
  256
370
   -1
100
AcDbLine
 10
1503.445220944193
 20
311.5181541904953
 11
1503.445220944193
 21
147.5181541904952
  0
LINE
  5
CE
100
AcDbEntity
  8
0
  6
ByLayer
 62
  256
370
   -1
100
AcDbLine
 10
1393.445220944193
 20
153.7364082599751
 11
1314.094932518749
 21
233.0866966854193
  0
LINE
  5
CF
100
AcDbEntity
  8
0
  6
ByLayer
 62
  256
370
   -1
100
AcDbLine
 10
1393.445220944193
 20
153.7364082599751
 11
1393.445220944193
 21
147.5181541904952
  0
LINE
  5
D0
100
AcDbEntity
  8
hard
  6
ByLayer
 62
  256
370
   -1
100
AcDbLine
 10
1228.445220944193
 20
396.5181541904955
 11
1448.445220944193
 21
176.5181541904953
  0
LINE
  5
D1
100
AcDbEntity
  8
meta
  6
ByLayer
 62
  256
370
   -1
100
AcDbLine
 10
1173.445220944193
 20
419.2999001210154
 11
1283.445220944193
 21
419.2999001210154
  0
LINE
  5
D2
100
AcDbEntity
  8
meta
  6
ByLayer
 62
  256
370
   -1
100
AcDbLine
 10
1205.663475013673
 20
341.5181541904952
 11
1283.445220944193
 21
419.2999001210154
  0
LINE
  5
D3
100
AcDbEntity
  8
hard
  6
ByLayer
 62
  256
370
   -1
100
AcDbLine
 10
1228.445220944193
 20
396.5181541904955
 11
1300.41578369267
 21
324.547591442018
  0
LINE
  5
D4
100
AcDbEntity
  8
hard
  6
ByLayer
 62
  256
370
   -1
100
AcDbLine
 10
1228.445220944193
 20
498.2999001210154
 11
1228.445220944193
 21
396.5181541904955
  0
ARC
  5
D5
100
AcDbEntity
  8
0
  6
ByLayer
 62
  256
370
   -1
100
AcDbCircle
 10
1353.457414253013
 20
448.2999001210154
 40
70.01219330881983
100
AcDbArc
 50
180
 51
225
  0
ARC
  5
D6
100
AcDbEntity
  8
0
  6
ByLayer
 62
  256
370
   -1
100
AcDbCircle
 10
1353.457414253013
 20
448.2999001210154
 40
180.0121933088197
100
AcDbArc
 50
180
 51
224.9999999999999
  0
LINE
  5
D7
100
AcDbEntity
  8
0
  6
ByLayer
 62
  256
370
   -1
100
AcDbLine
 10
1291.445220944193
 20
498.2999001210154
 11
1291.445220944193
 21
448.2999001210154
  0
LINE
  5
D8
100
AcDbEntity
  8
0
  6
ByLayer
 62
  256
370
   -1
100
AcDbLine
 10
1165.445220944193
 20
498.2999001210154
 11
1165.445220944193
 21
448.2999001210154
  0
LINE
  5
D9
100
AcDbEntity
  8
0
  6
ByLayer
 62
  256
370
   -1
100
AcDbLine
 10
1165.445220944193
 20
498.2999001210154
 11
1291.445220944193
 21
498.2999001210154
  0
LINE
  5
DA
100
AcDbEntity
  8
0
  6
ByLayer
 62
  256
370
   -1
100
AcDbLine
 10
1309.608171848095
 20
404.450657716098
 11
1344.963510907423
 21
369.0953186567705
  0
LINE
  5
DB
100
AcDbEntity
  8
0
  6
ByLayer
 62
  256
370
   -1
100
AcDbLine
 10
1220.51271741859
 20
315.3552032865928
 11
1255.868056477917
 21
279.9998642272653
  0
LINE
  5
DC
100
AcDbEntity
  8
0
  6
ByLayer
 62
  256
370
   -1
100
AcDbLine
 10
1255.868056477917
 20
279.9998642272653
 11
1344.963510907423
 21
369.0953186567705
  0
LINE
  5
DD
100
AcDbEntity
  8
0
  6
ByLayer
 62
  256
370
   -1
100
AcDbLine
 10
1165.445220944193
 20
448.2999001210154
 11
1173.445220944193
 21
448.2999001210154
  0
LINE
  5
DE
100
AcDbEntity
  8
0
  6
ByLayer
 62
  256
370
   -1
100
AcDbLine
 10
1220.51271741859
 20
315.3552032865928
 11
1226.169571668082
 21
321.0120575360853
  0
LINE
  5
DF
100
AcDbEntity
  8
0
  6
ByLayer
 62
  256
370
   -1
100
AcDbLine
 10
1283.445220944193
 20
448.2999001210154
 11
1291.445220944193
 21
448.2999001210154
  0
LINE
  5
E0
100
AcDbEntity
  8
0
  6
ByLayer
 62
  256
370
   -1
100
AcDbLine
 10
1303.951317598603
 20
398.7938034666054
 11
1309.608171848095
 21
404.450657716098
  0
LINE
  5
E1
100
AcDbEntity
  8
meta
  6
ByLayer
 62
  256
370
   -1
100
AcDbLine
 10
1173.445220944193
 20
498.2999001210154
 11
1173.445220944193
 21
373.7364082599748
  0
LINE
  5
E2
100
AcDbEntity
  8
meta
  6
ByLayer
 62
  256
370
   -1
100
AcDbLine
 10
1283.445220944193
 20
498.2999001210154
 11
1283.445220944193
 21
419.2999001210154
  0
LINE
  5
E3
100
AcDbEntity
  8
meta
  6
ByLayer
 62
  256
370
   -1
100
AcDbLine
 10
1173.445220944193
 20
373.7364082599748
 11
1261.52491072741
 21
285.6567184767578
  0
LINE
  5
E4
100
AcDbEntity
  8
meta
  6
ByLayer
 62
  256
370
   -1
100
AcDbLine
 10
1283.445220944193
 20
419.2999001210154
 11
1339.30665665793
 21
363.4384644072779
  0
LINE
  5
E5
100
AcDbEntity
  8
0
  6
ByLayer
 62
  256
370
   -1
100
AcDbLine
 10
1261.52491072741
 20
285.6567184767578
 11
1278.739593459421
 21
268.4420357447464
  0
LINE
  5
E6
100
AcDbEntity
  8
0
  6
ByLayer
 62
  256
370
   -1
100
AcDbLine
 10
1339.30665665793
 20
363.4384644072779
 11
1356.521339389942
 21
346.2237816752665
  0
LINE
  5
E7
100
AcDbEntity
  8
0
  6
ByLayer
 62
  256
370
   -1
100
AcDbLine
 10
1463.523051354964
 20
435.8144154642574
 11
1573.523051354964
 21
435.8144154642574
  0
LINE
  5
E8
100
AcDbEntity
  8
0
  6
ByLayer
 62
  256
370
   -1
100
AcDbLine
 10
1463.523051354964
 20
499.8144154642574
 11
1573.523051354964
 21
499.8144154642574
  0
LINE
  5
E9
100
AcDbEntity
  8
0
  6
ByLayer
 62
  256
370
   -1
100
AcDbLine
 10
1463.523051354964
 20
499.8144154642574
 11
1463.523051354964
 21
435.8144154642574
  0
LINE
  5
EA
100
AcDbEntity
  8
0
  6
ByLayer
 62
  256
370
   -1
100
AcDbLine
 10
1573.523051354964
 20
435.8144154642574
 11
1573.523051354964
 21
499.8144154642574
  0
LINE
  5
EB
100
AcDbEntity
  8
hard
  6
ByLayer
 62
  256
370
   -1
100
AcDbLine
 10
1518.523051354964
 20
499.8144154642574
 11
1518.523051354964
 21
435.8144154642574
  0
LINE
  5
EC
100
AcDbEntity
  8
0
  6
ByLayer
 62
  256
370
   -1
100
AcDbLine
 10
1481.023051354964
 20
499.8144154642574
 11
1481.023051354964
 21
455.8144154642574
  0
LINE
  5
ED
100
AcDbEntity
  8
0
  6
ByLayer
 62
  256
370
   -1
100
AcDbLine
 10
1481.023051354964
 20
455.8144154642574
 11
1556.023051354964
 21
455.8144154642574
  0
LINE
  5
EE
100
AcDbEntity
  8
0
  6
ByLayer
 62
  256
370
   -1
100
AcDbLine
 10
1556.023051354964
 20
499.8144154642574
 11
1556.023051354964
 21
455.8144154642574
  0
LINE
  5
EF
100
AcDbEntity
  8
hard
  6
ByLayer
 62
  256
370
   -1
100
AcDbLine
 10
1518.523051354964
 20
499.8144154642574
 11
1518.523051354964
 21
455.8144154642574
  0
LINE
  5
F0
100
AcDbEntity
  8
0
  6
ByLayer
 62
  256
370
   -1
100
AcDbLine
 10
1742.900449902154
 20
491.1627680066256
 11
1947.900449902154
 21
491.1627680066256
  0
LINE
  5
F1
100
AcDbEntity
  8
0
  6
ByLayer
 62
  256
370
   -1
100
AcDbLine
 10
1742.900449902154
 20
466.1627680066256
 11
1947.900449902154
 21
466.1627680066256
  0
LINE
  5
F2
100
AcDbEntity
  8
0
  6
ByLayer
 62
  256
370
   -1
100
AcDbLine
 10
1742.900449902154
 20
491.1627680066256
 11
1742.900449902154
 21
466.1627680066256
  0
LINE
  5
F3
100
AcDbEntity
  8
0
  6
ByLayer
 62
  256
370
   -1
100
AcDbLine
 10
1947.900449902154
 20
491.1627680066256
 11
1947.900449902154
 21
466.1627680066256
  0
LINE
  5
F4
100
AcDbEntity
  8
meta
  6
ByLayer
 62
  256
370
   -1
100
AcDbLine
 10
1757.900449902154
 20
491.1627680066256
 11
1757.900449902154
 21
466.1627680066256
  0
LINE
  5
F5
100
AcDbEntity
  8
meta
  6
ByLayer
 62
  256
370
   -1
100
AcDbLine
 10
1932.900449902154
 20
491.1627680066256
 11
1932.900449902154
 21
466.1627680066256
  0
LINE
  5
F6
100
AcDbEntity
  8
hard
  6
ByLayer
 62
  256
370
   -1
100
AcDbLine
 10
1845.400449902154
 20
491.1627680066256
 11
1845.400449902154
 21
281.1627680066256
  0
LINE
  5
F7
100
AcDbEntity
  8
meta
  6
ByLayer
 62
  256
370
   -1
100
AcDbLine
 10
1770.400449902154
 20
491.1627680066256
 11
1770.400449902154
 21
316.1627680066256
  0
LINE
  5
F8
100
AcDbEntity
  8
meta
  6
ByLayer
 62
  256
370
   -1
100
AcDbLine
 10
1920.400449902154
 20
491.1627680066256
 11
1920.400449902154
 21
316.1627680066256
  0
LINE
  5
F9
100
AcDbEntity
  8
0
  6
ByLayer
 62
  256
370
   -1
100
AcDbLine
 10
1757.900449902154
 20
466.1627680066256
 11
1770.400449902154
 21
316.1627680066256
  0
LINE
  5
FA
100
AcDbEntity
  8
0
  6
ByLayer
 62
  256
370
   -1
100
AcDbLine
 10
1932.900449902154
 20
466.1627680066256
 11
1920.400449902154
 21
316.1627680066256
  0
LINE
  5
FB
100
AcDbEntity
  8
0
  6
ByLayer
 62
  256
370
   -1
100
AcDbLine
 10
1807.900449902154
 20
316.1627680066256
 11
1807.900449902154
 21
281.1627680066256
  0
LINE
  5
FC
100
AcDbEntity
  8
0
  6
ByLayer
 62
  256
370
   -1
100
AcDbLine
 10
1882.900449902154
 20
316.1627680066256
 11
1882.900449902154
 21
281.1627680066256
  0
LINE
  5
FD
100
AcDbEntity
  8
0
  6
ByLayer
 62
  256
370
   -1
100
AcDbLine
 10
1770.400449902154
 20
316.1627680066256
 11
1920.400449902154
 21
316.1627680066256
  0
LINE
  5
FE
100
AcDbEntity
  8
0
  6
ByLayer
 62
  256
370
   -1
100
AcDbLine
 10
1807.900449902154
 20
281.1627680066256
 11
1882.900449902154
 21
281.1627680066256
  0
LINE
  5
FF
100
AcDbEntity
  8
0
  6
ByLayer
 62
  256
370
   -1
100
AcDbLine
 10
2460.05409806273
 20
288.8681587304492
 11
2570.05409806273
 21
288.8681587304492
  0
LINE
  5
100
100
AcDbEntity
  8
0
  6
ByLayer
 62
  256
370
   -1
100
AcDbLine
 10
2460.05409806273
 20
352.8681587304492
 11
2570.05409806273
 21
352.8681587304492
  0
LINE
  5
101
100
AcDbEntity
  8
0
  6
ByLayer
 62
  256
370
   -1
100
AcDbLine
 10
2460.05409806273
 20
352.8681587304492
 11
2460.05409806273
 21
288.8681587304492
  0
LINE
  5
102
100
AcDbEntity
  8
0
  6
ByLayer
 62
  256
370
   -1
100
AcDbLine
 10
2570.05409806273
 20
288.8681587304492
 11
2570.05409806273
 21
352.8681587304492
  0
LINE
  5
103
100
AcDbEntity
  8
hard
  6
ByLayer
 62
  256
370
   -1
100
AcDbLine
 10
2515.05409806273
 20
352.8681587304492
 11
2515.05409806273
 21
288.8681587304492
  0
LINE
  5
104
100
AcDbEntity
  8
0
  6
ByLayer
 62
  256
370
   -1
100
AcDbLine
 10
2477.55409806273
 20
352.8681587304492
 11
2477.55409806273
 21
308.8681587304492
  0
LINE
  5
105
100
AcDbEntity
  8
0
  6
ByLayer
 62
  256
370
   -1
100
AcDbLine
 10
2477.55409806273
 20
308.8681587304492
 11
2552.55409806273
 21
308.8681587304492
  0
LINE
  5
106
100
AcDbEntity
  8
0
  6
ByLayer
 62
  256
370
   -1
100
AcDbLine
 10
2552.55409806273
 20
352.8681587304492
 11
2552.55409806273
 21
308.8681587304492
  0
LINE
  5
107
100
AcDbEntity
  8
hard
  6
ByLayer
 62
  256
370
   -1
100
AcDbLine
 10
2515.05409806273
 20
352.8681587304492
 11
2515.05409806273
 21
308.8681587304492
  0
LINE
  5
108
100
AcDbEntity
  8
0
  6
ByLayer
 62
  256
370
   -1
100
AcDbLine
 10
2412.55409806273
 20
527.8681587304492
 11
2617.55409806273
 21
527.8681587304492
  0
LINE
  5
109
100
AcDbEntity
  8
0
  6
ByLayer
 62
  256
370
   -1
100
AcDbLine
 10
2412.55409806273
 20
502.8681587304492
 11
2617.55409806273
 21
502.8681587304492
  0
LINE
  5
10A
100
AcDbEntity
  8
0
  6
ByLayer
 62
  256
370
   -1
100
AcDbLine
 10
2412.55409806273
 20
527.8681587304492
 11
2412.55409806273
 21
502.8681587304492
  0
LINE
  5
10B
100
AcDbEntity
  8
0
  6
ByLayer
 62
  256
370
   -1
100
AcDbLine
 10
2617.55409806273
 20
527.8681587304492
 11
2617.55409806273
 21
502.8681587304492
  0
LINE
  5
10C
100
AcDbEntity
  8
meta
  6
ByLayer
 62
  256
370
   -1
100
AcDbLine
 10
2427.55409806273
 20
527.8681587304492
 11
2427.55409806273
 21
502.8681587304492
  0
LINE
  5
10D
100
AcDbEntity
  8
meta
  6
ByLayer
 62
  256
370
   -1
100
AcDbLine
 10
2602.55409806273
 20
527.8681587304492
 11
2602.55409806273
 21
502.8681587304492
  0
LINE
  5
10E
100
AcDbEntity
  8
hard
  6
ByLayer
 62
  256
370
   -1
100
AcDbLine
 10
2515.05409806273
 20
527.8681587304492
 11
2515.05409806273
 21
317.8681587304492
  0
LINE
  5
10F
100
AcDbEntity
  8
meta
  6
ByLayer
 62
  256
370
   -1
100
AcDbLine
 10
2440.05409806273
 20
527.8681587304492
 11
2440.05409806273
 21
352.8681587304492
  0
LINE
  5
110
100
AcDbEntity
  8
meta
  6
ByLayer
 62
  256
370
   -1
100
AcDbLine
 10
2590.05409806273
 20
527.8681587304492
 11
2590.05409806273
 21
352.8681587304492
  0
LINE
  5
111
100
AcDbEntity
  8
0
  6
ByLayer
 62
  256
370
   -1
100
AcDbLine
 10
2427.55409806273
 20
502.8681587304492
 11
2440.05409806273
 21
352.8681587304492
  0
LINE
  5
112
100
AcDbEntity
  8
0
  6
ByLayer
 62
  256
370
   -1
100
AcDbLine
 10
2602.55409806273
 20
502.8681587304492
 11
2590.05409806273
 21
352.8681587304492
  0
LINE
  5
113
100
AcDbEntity
  8
0
  6
ByLayer
 62
  256
370
   -1
100
AcDbLine
 10
2477.55409806273
 20
352.8681587304492
 11
2477.55409806273
 21
317.8681587304492
  0
LINE
  5
114
100
AcDbEntity
  8
0
  6
ByLayer
 62
  256
370
   -1
100
AcDbLine
 10
2552.55409806273
 20
352.8681587304492
 11
2552.55409806273
 21
317.8681587304492
  0
LINE
  5
115
100
AcDbEntity
  8
0
  6
ByLayer
 62
  256
370
   -1
100
AcDbLine
 10
2440.054098062731
 20
352.8681587304492
 11
2590.05409806273
 21
352.8681587304492
  0
LINE
  5
116
100
AcDbEntity
  8
0
  6
ByLayer
 62
  256
370
   -1
100
AcDbLine
 10
2477.55409806273
 20
317.8681587304492
 11
2552.55409806273
 21
317.8681587304492
  0
LINE
  5
117
100
AcDbEntity
  8
maaiveld
  6
ByLayer
 62
  256
370
   -1
100
AcDbLine
 10
2158.004105477491
 20
530.953529489744
 11
2705.187007532551
 21
530.953529489744
  0
LINE
  5
118
100
AcDbEntity
  8
meta
  6
ByLayer
 62
  256
370
   -1
100
AcDbLine
 10
2232.05409806273
 20
581.6499046609692
 11
2358.05409806273
 21
581.6499046609692
  0
LINE
  5
119
100
AcDbEntity
  8
0
  6
ByLayer
 62
  256
370
   -1
100
AcDbLine
 10
1364.224501785388
 20
886.9059948339283
 11
1474.224501785388
 21
886.9059948339283
  0
LINE
  5
11A
100
AcDbEntity
  8
0
  6
ByLayer
 62
  256
370
   -1
100
AcDbLine
 10
1364.224501785388
 20
947.9059948339283
 11
1474.224501785388
 21
947.9059948339283
  0
LINE
  5
11B
100
AcDbEntity
  8
0
  6
ByLayer
 62
  256
370
   -1
100
AcDbLine
 10
1364.224501785388
 20
947.9059948339283
 11
1364.224501785388
 21
886.9059948339283
  0
LINE
  5
11C
100
AcDbEntity
  8
0
  6
ByLayer
 62
  256
370
   -1
100
AcDbLine
 10
1474.224501785388
 20
886.9059948339283
 11
1474.224501785388
 21
947.9059948339283
  0
LINE
  5
11D
100
AcDbEntity
  8
hard
  6
ByLayer
 62
  256
370
   -1
100
AcDbLine
 10
1419.224501785388
 20
947.9059948339283
 11
1419.224501785388
 21
886.9059948339283
  0
LINE
  5
11E
100
AcDbEntity
  8
0
  6
ByLayer
 62
  256
370
   -1
100
AcDbLine
 10
1374.224501785388
 20
947.9059948339283
 11
1374.224501785388
 21
896.9059948339283
  0
LINE
  5
11F
100
AcDbEntity
  8
0
  6
ByLayer
 62
  256
370
   -1
100
AcDbLine
 10
1464.224501785388
 20
947.9059948339283
 11
1464.224501785388
 21
896.9059948339283
  0
LINE
  5
120
100
AcDbEntity
  8
0
  6
ByLayer
 62
  256
370
   -1
100
AcDbLine
 10
1374.224501785388
 20
896.9059948339283
 11
1464.224501785388
 21
896.9059948339283
  0
LINE
  5
121
100
AcDbEntity
  8
0
  6
ByLayer
 62
  256
370
   -1
100
AcDbLine
 10
1398.372485449459
 20
1015.463109804548
 11
1398.372485449459
 21
1215.463109804548
  0
LINE
  5
122
100
AcDbEntity
  8
0
  6
ByLayer
 62
  256
370
   -1
100
AcDbLine
 10
1478.372485449459
 20
1015.463109804548
 11
1478.372485449459
 21
1215.463109804548
  0
LINE
  5
123
100
AcDbEntity
  8
hard
  6
ByLayer
 62
  256
370
   -1
100
AcDbLine
 10
1438.372485449459
 20
1015.463109804548
 11
1438.372485449459
 21
1215.463109804548
  0
LINE
  5
124
100
AcDbEntity
  8
0
  6
ByLayer
 62
  256
370
   -1
100
AcDbLine
 10
1217.777358608413
 20
784.650359928101
 11
1327.777358608413
 21
784.650359928101
  0
LINE
  5
125
100
AcDbEntity
  8
0
  6
ByLayer
 62
  256
370
   -1
100
AcDbLine
 10
1217.777358608413
 20
734.650359928101
 11
1327.777358608413
 21
734.650359928101
  0
LINE
  5
126
100
AcDbEntity
  8
0
  6
ByLayer
 62
  256
370
   -1
100
AcDbLine
 10
1217.777358608413
 20
784.650359928101
 11
1217.777358608413
 21
734.650359928101
  0
LINE
  5
127
100
AcDbEntity
  8
0
  6
ByLayer
 62
  256
370
   -1
100
AcDbLine
 10
1327.777358608413
 20
784.650359928101
 11
1327.777358608413
 21
734.650359928101
  0
LINE
  5
128
100
AcDbEntity
  8
hard
  6
ByLayer
 62
  256
370
   -1
100
AcDbLine
 10
1272.777358608413
 20
784.650359928101
 11
1272.777358608413
 21
678.650359928101
  0
LINE
  5
129
100
AcDbEntity
  8
0
  6
ByLayer
 62
  256
370
   -1
100
AcDbLine
 10
1324.277358608413
 20
728.650359928101
 11
1324.277358608413
 21
678.650359928101
  0
LINE
  5
12A
100
AcDbEntity
  8
0
  6
ByLayer
 62
  256
370
   -1
100
AcDbLine
 10
1221.277358608413
 20
728.650359928101
 11
1324.277358608413
 21
728.650359928101
  0
LINE
  5
12B
100
AcDbEntity
  8
0
  6
ByLayer
 62
  256
370
   -1
100
AcDbLine
 10
1217.777358608413
 20
734.650359928101
 11
1221.277358608413
 21
728.650359928101
  0
LINE
  5
12C
100
AcDbEntity
  8
0
  6
ByLayer
 62
  256
370
   -1
100
AcDbLine
 10
1324.277358608413
 20
728.650359928101
 11
1327.777358608413
 21
734.650359928101
  0
LINE
  5
12D
100
AcDbEntity
  8
0
  6
ByLayer
 62
  256
370
   -1
100
AcDbLine
 10
1221.277358608413
 20
728.650359928101
 11
1221.277358608413
 21
678.650359928101
  0
LINE
  5
12E
100
AcDbEntity
  8
0
  6
ByLayer
 62
  256
370
   -1
100
AcDbLine
 10
1221.277358608413
 20
678.650359928101
 11
1324.277358608413
 21
678.650359928101
  0
LINE
  5
12F
100
AcDbEntity
  8
meta
  6
ByLayer
 62
  256
370
   -1
100
AcDbLine
 10
2240.05409806273
 20
581.6499046609692
 11
2240.05409806273
 21
351.0864127999287
  0
LINE
  5
130
100
AcDbEntity
  8
0
  6
ByLayer
 62
  256
370
   -1
100
AcDbLine
 10
2240.05409806273
 20
425.6499046609692
 11
2240.05409806273
 21
581.6499046609692
  0
LINE
  5
131
100
AcDbEntity
  8
meta
  6
ByLayer
 62
  256
370
   -1
100
AcDbLine
 10
2350.05409806273
 20
581.6499046609692
 11
2350.05409806273
 21
396.6499046609692
  0
LINE
  5
132
100
AcDbEntity
  8
0
  6
ByLayer
 62
  256
370
   -1
100
AcDbLine
 10
2350.05409806273
 20
425.6499046609692
 11
2350.05409806273
 21
581.6499046609692
  0
LINE
  5
133
100
AcDbEntity
  8
0
  6
ByLayer
 62
  256
370
   -1
100
AcDbLine
 10
2240.05409806273
 20
581.6499046609692
 11
2350.05409806273
 21
581.6499046609692
  0
LINE
  5
134
100
AcDbEntity
  8
0
  6
ByLayer
 62
  256
370
   -1
100
AcDbLine
 10
2240.05409806273
 20
425.6499046609692
 11
2350.05409806273
 21
425.6499046609692
  0
LINE
  5
135
100
AcDbEntity
  8
hard
  6
ByLayer
 62
  256
370
   -1
100
AcDbLine
 10
2295.05409806273
 20
581.6499046609692
 11
2295.05409806273
 21
373.8681587304494
  0
ENDSEC
  0
SECTION
  2
OBJECTS
  0
DICTIONARY
  5
C
330
0
100
AcDbDictionary
281
    1
  3
ACAD_GROUP
350
D
  0
DICTIONARY
  5
D
330
C
100
AcDbDictionary
281
    1
  0
ENDSEC
  0
EOF
